<?xml version="1.0" encoding="utf-8"?>
<!-- Generator: Adobe Illustrator 22.0.1, SVG Export Plug-In . SVG Version: 6.00 Build 0)  -->
<svg version="1.1" xmlns="http://www.w3.org/2000/svg" xmlns:xlink="http://www.w3.org/1999/xlink" x="0px" y="0px"
	 viewBox="0 0 240 100" style="enable-background:new 0 0 240 100;" xml:space="preserve">
<style type="text/css">
	.st0{display:none;}
	.st1{display:inline;}
	.st2{fill:none;stroke:#BAA68C;stroke-width:4;stroke-linecap:round;stroke-linejoin:round;}
	.st3{fill:none;stroke:#BAA68C;stroke-width:4;stroke-linecap:round;stroke-linejoin:round;stroke-dasharray:0.9905,4.9524;}
	.st4{display:inline;fill:#FFFFFF;stroke:#BAA68C;stroke-width:5;stroke-miterlimit:10;}
	.st5{display:inline;fill:none;stroke:#5D3720;stroke-width:5;stroke-linecap:round;stroke-linejoin:round;stroke-miterlimit:10;}
	
		.st6{display:inline;fill:#FFFFFF;stroke:#5D3720;stroke-width:5;stroke-linecap:round;stroke-linejoin:round;stroke-miterlimit:10;}
	.st7{display:inline;fill:#FFFFFF;stroke:#D0812F;stroke-width:5;stroke-miterlimit:10;}
	.st8{fill:#FFFFFF;stroke:#BAA68C;stroke-width:5;stroke-miterlimit:10;}
	.st9{fill:none;stroke:#5D3720;stroke-width:5;stroke-linecap:round;stroke-linejoin:round;stroke-miterlimit:10;}
	.st10{fill:#FFFFFF;stroke:#5D3720;stroke-width:5;stroke-linecap:round;stroke-linejoin:round;stroke-miterlimit:10;}
	.st11{fill:#FFFFFF;stroke:#D0812F;stroke-width:5;stroke-miterlimit:10;}
	.st12{fill:#5D3720;}
</style>
<g id="logo_type" class="st0">
	<g id="heart_right_1_" class="st1">
		<g>
			<path class="st2" d="M72.5,179.9c0,0,0.1-0.1,0.3-0.4"/>
			<path class="st3" d="M76.3,176.1c5.3-4.6,15.7-11.9,29.9-12.1c21-0.4,46.4,28.7,20.8,59.8c-20.8,25.3-44.7,30.5-53,31.6"/>
			<path class="st2" d="M71.5,255.6c-0.3,0-0.5,0-0.5,0"/>
		</g>
	</g>
	<g id="heart_left_1_" class="st1">
		<g>
			<path class="st2" d="M71.5,179.9c0,0-0.1-0.1-0.3-0.4"/>
			<path class="st3" d="M67.7,176.1c-5.3-4.6-15.7-11.9-29.9-12.1c-21-0.4-46.4,28.7-20.8,59.8c20.8,25.3,44.7,30.5,53,31.6"/>
			<path class="st2" d="M72.4,255.6c0.3,0,0.5,0,0.5,0"/>
		</g>
	</g>
	<path id="cup_eye_1_" class="st4" d="M108.1,205.3c0-1.3,12-5.3,13.8,3.3c2.8,12.9-15.8,9.1-15.8,7.7"/>
	<path id="cup_body_1_" class="st4" d="M37.8,199.3c0,0,14.8-5.6,34.7-5.6c22,0,35.6,5.6,35.6,5.6s1.8,45.3-35.2,45.3
		C37.8,244.5,37.8,199.3,37.8,199.3z"/>
	<path id="coffee_2_2_" class="st5" d="M75.3,209.1c0,0-6-3.9-14.8-3.4s-10.6,4.1-10.3,5.8c0.3,1.6,2.6,9.2,2.6,9.2"/>
	<path id="coffee_1_1_" class="st6" d="M50.2,211.5c0,0,3.8,8.4,16.3,4c6.6-2.4,7.9-9.8,20.3-9.8c18.9,0,10.6,30.1-13.8,30.1
		C53.3,235.9,50.2,211.5,50.2,211.5z"/>
	<path id="hand_1_" class="st7" d="M33.1,230.6c4.1-5.3,12.4,6.2,21.3,6.8c8.8,0.7,27.4-16.1,30.6-13c3.2,3.1-10.2,12.6-6.8,17.2
		c3.3,4.6,14.7-0.5,19.1-2.8c4.5-2.3,15.4-10.5,18-8.1c2.3,2-15.4,27.6-40,26.1C51.7,255.4,28.6,236.4,33.1,230.6z"/>
	<g id="text_1_" class="st1">
		<text transform="matrix(1 0 0 1 135.9434 226.0451)" class="st12" style="font-family:'FuturaBT-Medium'; font-size:36.503px;">  offee</text>
		
			<text transform="matrix(0.9595 0 0 1 147.9224 235.131)" class="st12" style="font-family:'FuturaBT-Medium'; font-size:48.76px;">C</text>
		<text transform="matrix(1 0 0 1 129.1674 258.4811)" class="st12" style="font-family:'FuturaBT-Medium'; font-size:36.503px;">Care</text>
	</g>
</g>
<g id="logo_vector_type">
	<g id="heart_right">
		<g>
			<path class="st2" d="M70,19.5c0,0,0.1-0.1,0.3-0.4"/>
			<path class="st3" d="M73.9,15.6C79.1,11,89.6,3.7,103.7,3.5c21-0.4,46.4,28.7,20.8,59.8c-20.8,25.3-44.7,30.5-53,31.6"/>
			<path class="st2" d="M69.1,95.1c-0.3,0-0.5,0-0.5,0"/>
		</g>
	</g>
	<g id="heart_left">
		<g>
			<path class="st2" d="M69.1,19.5c0,0-0.1-0.1-0.3-0.4"/>
			<path class="st3" d="M65.2,15.6C60,11,49.6,3.7,35.4,3.5C14.4,3.1-11,32.2,14.6,63.3c20.8,25.3,44.7,30.5,53,31.6"/>
			<path class="st2" d="M70,95.1c0.3,0,0.5,0,0.5,0"/>
		</g>
	</g>
	<path id="cup_eye_2_" class="st8" d="M105.7,44.8c0-1.3,12-5.3,13.8,3.3c2.8,12.9-15.8,9.1-15.8,7.7"/>
	<path id="cup_body_2_" class="st8" d="M35.3,38.8c0,0,14.8-5.6,34.7-5.6c22,0,35.6,5.6,35.6,5.6S107.4,84,70.5,84
		C35.3,84,35.3,38.8,35.3,38.8z"/>
	<path id="coffee_2_1_" class="st9" d="M72.8,48.7c0,0-6-3.9-14.8-3.4s-10.6,4.1-10.3,5.8c0.3,1.6,2.6,9.2,2.6,9.2"/>
	<path id="coffee_1_2_" class="st10" d="M47.7,51.1c0,0,3.8,8.4,16.3,4c6.6-2.4,7.9-9.8,20.3-9.8c18.9,0,10.6,30.1-13.8,30.1
		C50.8,75.4,47.7,51.1,47.7,51.1z"/>
	<path id="hand_3_" class="st11" d="M30.6,70.2c4.1-5.3,12.4,6.2,21.3,6.8s27.4-16.1,30.6-13s-10.2,12.6-6.8,17.2
		c3.3,4.6,14.7-0.5,19.1-2.8c4.5-2.3,15.4-10.5,18-8.1c2.3,2-15.4,27.6-40,26.1C49.3,94.9,26.2,75.9,30.6,70.2z"/>
	<g id="text">
		<g>
			<path class="st12" d="M157,57.1c0-1.2,0.2-2.4,0.7-3.5c0.5-1.1,1.1-2.1,2-2.9c0.9-0.8,1.9-1.5,3-1.9s2.3-0.7,3.5-0.7
				c1.3,0,2.5,0.2,3.6,0.7s2.1,1.1,3,2c0.9,0.9,1.6,1.8,2,2.9c0.5,1.1,0.7,2.2,0.7,3.4c0,1.2-0.2,2.4-0.7,3.5
				c-0.5,1.1-1.1,2.1-2,2.9c-0.9,0.9-2,1.6-3.1,2c-1.1,0.5-2.3,0.7-3.6,0.7c-1.2,0-2.4-0.2-3.5-0.7c-1.1-0.5-2.1-1.1-3-2
				c-0.9-0.9-1.6-1.9-2-3C157.2,59.5,157,58.4,157,57.1z M171.5,57.2c0-1.6-0.5-2.9-1.5-4c-1-1.1-2.2-1.6-3.7-1.6
				c-1.5,0-2.7,0.5-3.7,1.6c-1,1.1-1.5,2.4-1.5,4s0.5,2.9,1.5,4c1,1.1,2.2,1.6,3.7,1.6c1.4,0,2.7-0.5,3.7-1.6
				C171,60.1,171.5,58.7,171.5,57.2z"/>
			<path class="st12" d="M180.2,65.6V52.1h-3v-3.4h3v-4.5c0-2.2,0.5-3.9,1.4-5c0.9-1.1,2.4-1.6,4.3-1.6c0.4,0,0.8,0,1.3,0.1
				c0.4,0.1,0.9,0.2,1.3,0.3v3.5c-0.3-0.2-0.6-0.3-0.9-0.4c-0.3-0.1-0.6-0.1-1-0.1c-0.9,0-1.6,0.3-2,0.9s-0.6,1.5-0.6,2.9v4h4.1v3.4
				h-4.1v13.5H180.2z"/>
			<path class="st12" d="M191.4,65.6V52.1h-3v-3.4h3v-4.5c0-2.2,0.5-3.9,1.4-5c0.9-1.1,2.4-1.6,4.3-1.6c0.4,0,0.8,0,1.3,0.1
				c0.4,0.1,0.9,0.2,1.3,0.3v3.5c-0.3-0.2-0.6-0.3-0.9-0.4c-0.3-0.1-0.6-0.1-1-0.1c-0.9,0-1.6,0.3-2,0.9s-0.6,1.5-0.6,2.9v4h4.1v3.4
				h-4.1v13.5H191.4z"/>
			<path class="st12" d="M218.3,57.7h-13.5c0.1,1.6,0.6,2.8,1.4,3.7s2,1.3,3.4,1.3c1.2,0,2.3-0.3,3.1-0.8c0.8-0.5,1.6-1.4,2.2-2.5
				l3.3,1.8c-1,1.7-2.1,3-3.5,3.8s-3,1.2-4.9,1.2c-2.7,0-4.9-0.8-6.5-2.5c-1.6-1.7-2.4-3.9-2.4-6.6c0-2.6,0.8-4.8,2.5-6.5
				c1.7-1.7,3.8-2.6,6.4-2.6c2.7,0,4.8,0.8,6.4,2.3c1.5,1.6,2.3,3.7,2.3,6.5V57.7z M214.3,55.1c-0.2-1.2-0.6-2.1-1.4-2.8
				s-1.8-1-3.2-1c-1.3,0-2.3,0.3-3.1,0.9c-0.8,0.6-1.3,1.6-1.6,2.8H214.3z"/>
			<path class="st12" d="M238.6,57.7h-13.5c0.1,1.6,0.6,2.8,1.4,3.7s2,1.3,3.4,1.3c1.2,0,2.3-0.3,3.1-0.8c0.8-0.5,1.6-1.4,2.2-2.5
				l3.3,1.8c-1,1.7-2.1,3-3.5,3.8c-1.4,0.8-3,1.2-4.9,1.2c-2.7,0-4.9-0.8-6.5-2.5c-1.6-1.7-2.4-3.9-2.4-6.6c0-2.6,0.8-4.8,2.5-6.5
				s3.8-2.6,6.4-2.6c2.7,0,4.8,0.8,6.4,2.3c1.5,1.6,2.3,3.7,2.3,6.5V57.7z M234.6,55.1c-0.2-1.2-0.6-2.1-1.4-2.8s-1.8-1-3.2-1
				c-1.3,0-2.3,0.3-3.1,0.9c-0.8,0.6-1.3,1.6-1.6,2.8H234.6z"/>
		</g>
		<g>
			<path class="st12" d="M176.2,48.3c-1.5-1.4-3.2-2.4-4.9-3.1c-1.7-0.7-3.5-1-5.4-1c-3.7,0-6.6,1.2-8.9,3.7
				c-2.3,2.4-3.4,5.6-3.4,9.5c0,3.8,1.1,6.9,3.3,9.3c2.2,2.4,5,3.7,8.4,3.7c2,0,3.9-0.4,5.7-1.1c1.8-0.7,3.5-1.8,5.2-3.3v6.4
				c-1.5,1.1-3.1,1.9-4.8,2.5c-1.7,0.5-3.6,0.8-5.6,0.8c-2.6,0-4.9-0.4-7.1-1.3c-2.2-0.9-4.1-2.2-5.7-3.9c-1.6-1.7-2.9-3.6-3.8-5.9
				c-0.9-2.3-1.3-4.7-1.3-7.2c0-2.6,0.4-5,1.3-7.2c0.9-2.2,2.1-4.2,3.8-5.9c1.7-1.7,3.6-3,5.7-3.9s4.5-1.3,7-1.3
				c2,0,3.8,0.3,5.6,0.9c1.8,0.6,3.5,1.5,5.2,2.7L176.2,48.3z"/>
		</g>
		<g>
			<path class="st12" d="M150.7,78.3c-1.2-1-2.5-1.8-3.8-2.3s-2.7-0.8-4.2-0.8c-2.9,0-5.2,0.9-7,2.7c-1.8,1.8-2.7,4.2-2.7,7.1
				c0,2.8,0.9,5.1,2.6,7c1.7,1.8,3.9,2.7,6.6,2.7c1.5,0,3-0.3,4.4-0.8c1.4-0.5,2.7-1.4,4-2.5v4.8c-1.1,0.8-2.4,1.4-3.7,1.8
				c-1.3,0.4-2.8,0.6-4.4,0.6c-2,0-3.8-0.3-5.5-1s-3.2-1.6-4.5-2.9c-1.3-1.2-2.2-2.7-2.9-4.4c-0.7-1.7-1-3.5-1-5.4
				c0-1.9,0.3-3.7,1-5.4c0.7-1.7,1.7-3.2,3-4.4c1.3-1.3,2.8-2.3,4.5-2.9s3.5-1,5.4-1c1.5,0,3,0.2,4.4,0.7c1.4,0.4,2.7,1.1,4,2
				L150.7,78.3z"/>
			<path class="st12" d="M171.5,98h-3.9v-2.2c-0.7,1-1.5,1.7-2.4,2.2c-0.9,0.5-2,0.7-3.2,0.7c-2.4,0-4.3-0.8-5.6-2.5
				c-1.4-1.6-2.1-3.9-2.1-6.7c0-2.7,0.7-4.9,2.1-6.5s3.2-2.5,5.5-2.5c1.4,0,2.6,0.3,3.5,0.9c1,0.6,1.7,1.4,2.1,2.5v-2.8h3.9V98z
				 M167.7,89.5c0-1.7-0.4-3.1-1.2-4.1c-0.8-1-2-1.5-3.4-1.5c-1.5,0-2.6,0.5-3.4,1.5c-0.8,1-1.3,2.4-1.3,4.2c0,1.8,0.4,3.2,1.2,4.2
				c0.8,1,1.9,1.5,3.4,1.5c1.4,0,2.5-0.5,3.4-1.6C167.3,92.6,167.7,91.2,167.7,89.5z"/>
			<path class="st12" d="M180.7,83.8c0.4-1.1,1-1.9,1.6-2.5c0.7-0.5,1.5-0.8,2.5-0.8c0.5,0,1.1,0.1,1.6,0.2c0.5,0.1,1,0.3,1.6,0.6
				l-1.4,3.3c-0.3-0.2-0.7-0.4-1.1-0.5c-0.4-0.1-0.8-0.2-1.3-0.2c-1.3,0-2.2,0.5-2.8,1.5s-0.8,2.8-0.8,5.2V98h-3.9V81.1h3.9V83.8z"
				/>
			<path class="st12" d="M206.6,90.1H193c0.1,1.6,0.6,2.8,1.4,3.7c0.8,0.9,2,1.3,3.4,1.3c1.2,0,2.3-0.3,3.1-0.8
				c0.8-0.5,1.6-1.4,2.2-2.5l3.3,1.8c-1,1.7-2.1,3-3.5,3.8c-1.4,0.8-3,1.2-4.9,1.2c-2.7,0-4.9-0.8-6.5-2.5c-1.6-1.7-2.4-3.9-2.4-6.6
				c0-2.6,0.8-4.8,2.5-6.5s3.8-2.6,6.4-2.6c2.7,0,4.8,0.8,6.4,2.3c1.5,1.6,2.3,3.7,2.3,6.5V90.1z M202.5,87.5
				c-0.2-1.2-0.6-2.1-1.4-2.8s-1.8-1-3.2-1c-1.3,0-2.3,0.3-3.1,0.9c-0.8,0.6-1.3,1.6-1.6,2.8H202.5z"/>
		</g>
	</g>
</g>
</svg>
