<?xml version="1.0" encoding="utf-8"?>
<!-- Generator: Adobe Illustrator 22.0.1, SVG Export Plug-In . SVG Version: 6.00 Build 0)  -->
<svg version="1.1" xmlns="http://www.w3.org/2000/svg" xmlns:xlink="http://www.w3.org/1999/xlink" x="0px" y="0px"
	 viewBox="0 0 50 50" style="enable-background:new 0 0 50 50;" xml:space="preserve">
<style type="text/css">
	.st0{display:none;}
	.st1{display:inline;}
	.st2{fill:#BAA68C;}
	.st3{fill:#FFFFFF;}
	.st4{fill:#D0812F;}
</style>
<g id="social_media_hover" class="st0">
	<g id="twit_1_" class="st1">
		<path class="st2" d="M212,89c0,13.3-10.7,24-24,24c-13.3,0-24-10.7-24-24c0-13.3,10.7-24,24-24C201.3,65,212,75.7,212,89z"/>
		<g>
			<path class="st3" d="M202.2,77.4c-1.2,0.7-2.5,1.2-3.9,1.5c-1.1-1.2-2.7-1.9-4.5-1.9c-3.4,0-6.2,2.7-6.2,6.1
				c0,0.5,0.1,0.9,0.2,1.4c-5.1-0.3-9.7-2.7-12.7-6.3c-0.5,0.9-0.8,1.9-0.8,3c0,2.1,1.1,4,2.7,5c-1,0-2-0.3-2.8-0.8c0,0,0,0.1,0,0.1
				c0,2.9,2.1,5.4,4.9,5.9c-0.5,0.1-1.1,0.2-1.6,0.2c-0.4,0-0.8,0-1.2-0.1c0.8,2.4,3.1,4.2,5.8,4.2c-2.1,1.6-4.8,2.6-7.6,2.6
				c-0.5,0-1,0-1.5-0.1c2.7,1.7,6,2.7,9.4,2.7c11.3,0,17.5-9.2,17.5-17.2c0-0.3,0-0.5,0-0.8c1.2-0.9,2.2-1.9,3.1-3.1
				c-1.1,0.5-2.3,0.8-3.5,1C200.8,80,201.7,78.9,202.2,77.4z"/>
		</g>
	</g>
	<g id="fb_1_" class="st1">
		<path class="st2" d="M102.5,88.5c0,13.3-10.7,24-24,24c-13.3,0-24-10.7-24-24c0-13.3,10.7-24,24-24
			C91.8,64.5,102.5,75.2,102.5,88.5z"/>
		<g>
			<path class="st3" d="M74.5,103.5h6c0,0,0-8.3,0-15H85l0.5-6h-4.8v-2.4c0-1.2,0.8-1.4,1.3-1.4c0.5,0,3.4,0,3.4,0v-5.1l-4.6,0
				c-5.1,0-6.3,3.8-6.3,6.3v2.7h-3v6h3C74.5,95.3,74.5,103.5,74.5,103.5z"/>
		</g>
	</g>
	<g id="instagram_1_" class="st1">
		<path class="st2" d="M49,89.5c0,13.3-10.7,24-24,24c-13.3,0-24-10.7-24-24c0-13.3,10.7-24,24-24C38.3,65.5,49,76.2,49,89.5z"/>
		<g>
			<path class="st3" d="M34.2,74.5H15.8c-3.2,0-5.8,2.6-5.8,5.8v6.1v12.3c0,3.2,2.6,5.8,5.8,5.8h18.4c3.2,0,5.8-2.6,5.8-5.8V86.4
				v-6.1C40,77.1,37.4,74.5,34.2,74.5z M35.9,78l0.7,0v0.7V83l-5.1,0l0-5.1L35.9,78z M20.8,86.4c1-1.3,2.5-2.2,4.3-2.2
				c1.8,0,3.3,0.9,4.3,2.2c0.6,0.9,1,1.9,1,3.1c0,2.9-2.4,5.3-5.3,5.3c-2.9,0-5.3-2.4-5.3-5.3C19.8,88.4,20.1,87.3,20.8,86.4z
				 M37.1,98.7c0,1.6-1.3,2.9-2.9,2.9H15.8c-1.6,0-2.9-1.3-2.9-2.9V86.4h4.5c-0.4,1-0.6,2-0.6,3.1c0,4.5,3.7,8.2,8.2,8.2
				c4.5,0,8.2-3.7,8.2-8.2c0-1.1-0.2-2.1-0.6-3.1h4.5V98.7z"/>
		</g>
	</g>
	<g id="you_tube_1_" class="st1">
		<path class="st2" d="M157,88.5c0,13.3-10.7,24-24,24c-13.3,0-24-10.7-24-24c0-13.3,10.7-24,24-24C146.3,64.5,157,75.2,157,88.5z"
			/>
		<g>
			<path class="st3" d="M141.1,93.7c-0.2,0-0.4,0.1-0.5,0.2c-0.1,0.1-0.2,0.4-0.2,0.7v0.8h1.3v-0.8c0-0.3-0.1-0.6-0.2-0.7
				C141.5,93.8,141.3,93.7,141.1,93.7z"/>
			<g>
				<path class="st3" d="M135.8,93.7c-0.1,0-0.2,0-0.3,0.1c-0.1,0.1-0.2,0.1-0.3,0.2v4.8c0.1,0.1,0.2,0.2,0.4,0.3
					c0.1,0.1,0.2,0.1,0.4,0.1c0.2,0,0.3-0.1,0.4-0.2c0.1-0.1,0.1-0.3,0.1-0.5v-4c0-0.3-0.1-0.5-0.2-0.6
					C136.2,93.7,136,93.7,135.8,93.7z"/>
				<g>
					<path class="st3" d="M142.6,87.5h-19c-3,0-5.5,2.8-5.5,5.9v4.5c0,3.1,2.5,5.6,5.5,5.6h19c3,0,5.5-2.5,5.5-5.6v-4.5
						C148,90.3,145.6,87.5,142.6,87.5z M127.5,91.3h-1.8v9H124v-9h-1.8v-1.5h5.2V91.3z M132.5,100.3H131v-0.9
						c-0.3,0.3-0.6,0.6-0.9,0.7c-0.3,0.2-0.6,0.2-0.9,0.2c-0.4,0-0.6-0.1-0.8-0.3c-0.2-0.2-0.3-0.6-0.3-1v-6.5h1.5v6
						c0,0.2,0,0.3,0.1,0.4c0.1,0.1,0.2,0.1,0.3,0.1c0.1,0,0.3-0.1,0.4-0.2c0.2-0.1,0.3-0.2,0.5-0.4v-5.9h1.5V100.3z M138,98.7
						c0,0.5-0.1,1-0.4,1.3c-0.2,0.3-0.6,0.4-1,0.4c-0.3,0-0.6-0.1-0.8-0.2c-0.2-0.1-0.4-0.3-0.6-0.5v0.6h-1.5V89.8h1.5v3.4
						c0.2-0.2,0.4-0.4,0.7-0.5c0.2-0.1,0.5-0.2,0.7-0.2c0.5,0,0.8,0.2,1.1,0.5c0.3,0.3,0.4,0.8,0.4,1.5V98.7z M143.3,96.6h-2.9v1.5
						c0,0.4,0,0.7,0.1,0.9c0.1,0.2,0.3,0.2,0.5,0.2c0.3,0,0.4-0.1,0.5-0.2c0.1-0.1,0.2-0.4,0.2-0.9v-0.4h1.6v0.4
						c0,0.8-0.2,1.4-0.6,1.8c-0.4,0.4-0.9,0.6-1.7,0.6c-0.7,0-1.2-0.2-1.6-0.6c-0.4-0.4-0.6-1-0.6-1.8v-3.5c0-0.7,0.2-1.2,0.6-1.6
						c0.4-0.4,1-0.6,1.7-0.6c0.7,0,1.2,0.2,1.6,0.6c0.4,0.4,0.6,1,0.6,1.7V96.6z"/>
					<polygon class="st3" points="123.7,73.5 126,80.5 126,85.1 127.9,85.1 127.9,80.3 130.2,73.5 128.2,73.5 127,78.1 126.9,78.1 
						125.7,73.5 					"/>
					<path class="st3" d="M131,76.9c-0.5,0.4-0.7,0.9-0.7,1.6v4.4c0,0.7,0.2,1.3,0.7,1.7c0.5,0.4,1,0.6,1.8,0.6
						c0.8,0,1.4-0.2,1.8-0.6c0.4-0.4,0.7-1,0.7-1.7v-4.4c0-0.7-0.2-1.2-0.7-1.6c-0.5-0.4-1-0.6-1.7-0.6
						C132.1,76.3,131.5,76.5,131,76.9z M133.5,78.4v4.7c0,0.2-0.1,0.4-0.2,0.5c-0.1,0.1-0.3,0.2-0.6,0.2c-0.2,0-0.4-0.1-0.5-0.2
						c-0.1-0.1-0.2-0.3-0.2-0.5v-4.7c0-0.2,0.1-0.3,0.2-0.5c0.1-0.1,0.3-0.2,0.5-0.2c0.2,0,0.4,0.1,0.5,0.2
						C133.5,78.1,133.5,78.2,133.5,78.4z"/>
					<path class="st3" d="M141.5,85.1v-8.6h-1.7V83c-0.2,0.2-0.3,0.3-0.5,0.5c-0.2,0.1-0.4,0.2-0.5,0.2c-0.2,0-0.3,0-0.3-0.1
						c-0.1-0.1-0.1-0.2-0.1-0.4v-6.6h-1.7v7.1c0,0.5,0.1,0.9,0.3,1.1c0.2,0.3,0.5,0.4,0.9,0.4c0.3,0,0.7-0.1,1-0.3
						c0.3-0.2,0.7-0.4,1-0.8v0.9H141.5z"/>
				</g>
			</g>
		</g>
	</g>
</g>
<g id="social_media">
	<g id="twit">
		<path class="st4" d="M49,25c0,13.3-10.7,24-24,24C11.7,49,1,38.3,1,25C1,11.7,11.7,1,25,1C38.3,1,49,11.7,49,25z"/>
		<g>
			<path class="st3" d="M39.2,13.4c-1.2,0.7-2.5,1.2-3.9,1.5c-1.1-1.2-2.7-1.9-4.5-1.9c-3.4,0-6.2,2.7-6.2,6.1
				c0,0.5,0.1,0.9,0.2,1.4c-5.1-0.3-9.7-2.7-12.7-6.3c-0.5,0.9-0.8,1.9-0.8,3c0,2.1,1.1,4,2.7,5c-1,0-2-0.3-2.8-0.8c0,0,0,0.1,0,0.1
				c0,2.9,2.1,5.4,4.9,5.9c-0.5,0.1-1.1,0.2-1.6,0.2c-0.4,0-0.8,0-1.2-0.1c0.8,2.4,3.1,4.2,5.8,4.2c-2.1,1.6-4.8,2.6-7.6,2.6
				c-0.5,0-1,0-1.5-0.1c2.7,1.7,6,2.7,9.4,2.7c11.3,0,17.5-9.2,17.5-17.2c0-0.3,0-0.5,0-0.8c1.2-0.9,2.2-1.9,3.1-3.1
				c-1.1,0.5-2.3,0.8-3.5,1C37.7,16,38.7,14.9,39.2,13.4z"/>
		</g>
	</g>
	<g id="fb">
		<path class="st4" d="M104.1,25c0,13.3-10.7,24-24,24c-13.3,0-24-10.7-24-24c0-13.3,10.7-24,24-24C93.4,1,104.1,11.7,104.1,25z"/>
		<g>
			<path class="st3" d="M76.1,40h6c0,0,0-8.3,0-15h4.5l0.5-6h-4.8v-2.4c0-1.2,0.8-1.4,1.3-1.4c0.5,0,3.4,0,3.4,0V10l-4.6,0
				c-5.1,0-6.3,3.8-6.3,6.3V19h-3v6h3C76.1,31.8,76.1,40,76.1,40z"/>
		</g>
	</g>
	<g id="instagram">
		<path class="st4" d="M-7.3,25c0,13.3-10.7,24-24,24c-13.3,0-24-10.7-24-24c0-13.3,10.7-24,24-24C-18,1-7.3,11.7-7.3,25z"/>
		<g>
			<path class="st3" d="M-22,10h-18.4c-3.2,0-5.8,2.6-5.8,5.8v6.1v12.3c0,3.2,2.6,5.8,5.8,5.8H-22c3.2,0,5.8-2.6,5.8-5.8V21.9v-6.1
				C-16.3,12.6-18.9,10-22,10z M-20.4,13.5l0.7,0v0.7v4.4l-5.1,0l0-5.1L-20.4,13.5z M-35.5,21.9c1-1.3,2.5-2.2,4.3-2.2
				c1.8,0,3.3,0.9,4.3,2.2c0.6,0.9,1,1.9,1,3.1c0,2.9-2.4,5.3-5.3,5.3c-2.9,0-5.3-2.4-5.3-5.3C-36.5,23.9-36.2,22.8-35.5,21.9z
				 M-19.2,34.2c0,1.6-1.3,2.9-2.9,2.9h-18.4c-1.6,0-2.9-1.3-2.9-2.9V21.9h4.5c-0.4,1-0.6,2-0.6,3.1c0,4.5,3.7,8.2,8.2,8.2
				c4.5,0,8.2-3.7,8.2-8.2c0-1.1-0.2-2.1-0.6-3.1h4.5V34.2z"/>
		</g>
	</g>
	<g id="you_tube">
		<path class="st4" d="M158.1,25c0,13.3-10.7,24-24,24c-13.3,0-24-10.7-24-24c0-13.3,10.7-24,24-24C147.3,1,158.1,11.7,158.1,25z"/>
		<g>
			<path class="st3" d="M142.1,30.2c-0.2,0-0.4,0.1-0.5,0.2c-0.1,0.1-0.2,0.4-0.2,0.7v0.8h1.3v-0.8c0-0.3-0.1-0.6-0.2-0.7
				C142.5,30.3,142.3,30.2,142.1,30.2z"/>
			<g>
				<path class="st3" d="M136.9,30.2c-0.1,0-0.2,0-0.3,0.1c-0.1,0.1-0.2,0.1-0.3,0.2v4.8c0.1,0.1,0.2,0.2,0.4,0.3
					c0.1,0.1,0.2,0.1,0.4,0.1c0.2,0,0.3-0.1,0.4-0.2c0.1-0.1,0.1-0.3,0.1-0.5v-4c0-0.3-0.1-0.5-0.2-0.6
					C137.2,30.2,137.1,30.2,136.9,30.2z"/>
				<g>
					<path class="st3" d="M143.6,24h-19c-3,0-5.5,2.8-5.5,5.9v4.5c0,3.1,2.5,5.6,5.5,5.6h19c3,0,5.5-2.5,5.5-5.6v-4.5
						C149.1,26.8,146.6,24,143.6,24z M128.6,27.8h-1.8v9h-1.7v-9h-1.8v-1.5h5.2V27.8z M133.6,36.8H132v-0.9
						c-0.3,0.3-0.6,0.6-0.9,0.7c-0.3,0.2-0.6,0.2-0.9,0.2c-0.4,0-0.6-0.1-0.8-0.3c-0.2-0.2-0.3-0.6-0.3-1V29h1.5v6
						c0,0.2,0,0.3,0.1,0.4c0.1,0.1,0.2,0.1,0.3,0.1c0.1,0,0.3-0.1,0.4-0.2c0.2-0.1,0.3-0.2,0.5-0.4V29h1.5V36.8z M139.1,35.2
						c0,0.5-0.1,1-0.4,1.3c-0.2,0.3-0.6,0.4-1,0.4c-0.3,0-0.6-0.1-0.8-0.2c-0.2-0.1-0.4-0.3-0.6-0.5v0.6h-1.5V26.3h1.5v3.4
						c0.2-0.2,0.4-0.4,0.7-0.5c0.2-0.1,0.5-0.2,0.7-0.2c0.5,0,0.8,0.2,1.1,0.5c0.3,0.3,0.4,0.8,0.4,1.5V35.2z M144.3,33.1h-2.9v1.5
						c0,0.4,0,0.7,0.1,0.9c0.1,0.2,0.3,0.2,0.5,0.2c0.3,0,0.4-0.1,0.5-0.2c0.1-0.1,0.2-0.4,0.2-0.9v-0.4h1.6v0.4
						c0,0.8-0.2,1.4-0.6,1.8c-0.4,0.4-0.9,0.6-1.7,0.6c-0.7,0-1.2-0.2-1.6-0.6c-0.4-0.4-0.6-1-0.6-1.8v-3.5c0-0.7,0.2-1.2,0.6-1.6
						c0.4-0.4,1-0.6,1.7-0.6c0.7,0,1.2,0.2,1.6,0.6c0.4,0.4,0.6,1,0.6,1.7V33.1z"/>
					<polygon class="st3" points="124.8,10 127.1,17 127.1,21.6 129,21.6 129,16.8 131.2,10 129.3,10 128.1,14.6 128,14.6 126.7,10 
											"/>
					<path class="st3" d="M132,13.4c-0.5,0.4-0.7,0.9-0.7,1.6v4.4c0,0.7,0.2,1.3,0.7,1.7c0.5,0.4,1,0.6,1.8,0.6
						c0.8,0,1.4-0.2,1.8-0.6c0.4-0.4,0.7-1,0.7-1.7V15c0-0.7-0.2-1.2-0.7-1.6c-0.5-0.4-1-0.6-1.7-0.6C133.1,12.8,132.5,13,132,13.4z
						 M134.6,14.9v4.7c0,0.2-0.1,0.4-0.2,0.5c-0.1,0.1-0.3,0.2-0.6,0.2c-0.2,0-0.4-0.1-0.5-0.2c-0.1-0.1-0.2-0.3-0.2-0.5v-4.7
						c0-0.2,0.1-0.3,0.2-0.5c0.1-0.1,0.3-0.2,0.5-0.2c0.2,0,0.4,0.1,0.5,0.2C134.5,14.6,134.6,14.7,134.6,14.9z"/>
					<path class="st3" d="M142.6,21.6V13h-1.7v6.5c-0.2,0.2-0.3,0.3-0.5,0.5c-0.2,0.1-0.4,0.2-0.5,0.2c-0.2,0-0.3,0-0.3-0.1
						c-0.1-0.1-0.1-0.2-0.1-0.4V13h-1.7v7.1c0,0.5,0.1,0.9,0.3,1.1c0.2,0.3,0.5,0.4,0.9,0.4c0.3,0,0.7-0.1,1-0.3
						c0.3-0.2,0.7-0.4,1-0.8v0.9H142.6z"/>
				</g>
			</g>
		</g>
	</g>
</g>
</svg>
